<svg width="46" height="7" viewBox="0 0 46 7" fill="none" xmlns="http://www.w3.org/2000/svg">
<mask id="path-1-inside-1_106_134" fill="white">
<path d="M45.8611 3.81327C46.0463 3.62876 46.0463 3.32961 45.8611 3.1451L42.8431 0.138381C42.6579 -0.0461268 42.3577 -0.0461268 42.1725 0.138381C41.9873 0.32289 41.9873 0.622033 42.1725 0.806543L44.8551 3.47918L42.1725 6.15185C41.9873 6.33634 41.9873 6.63546 42.1725 6.82C42.3577 7.0045 42.6579 7.0045 42.8431 6.82L45.8611 3.81327ZM0 3.95164L45.5258 3.95164V3.00672L0 3.00672L0 3.95164Z"/>
</mask>
<path d="M45.8611 3.81327C46.0463 3.62876 46.0463 3.32961 45.8611 3.1451L42.8431 0.138381C42.6579 -0.0461268 42.3577 -0.0461268 42.1725 0.138381C41.9873 0.32289 41.9873 0.622033 42.1725 0.806543L44.8551 3.47918L42.1725 6.15185C41.9873 6.33634 41.9873 6.63546 42.1725 6.82C42.3577 7.0045 42.6579 7.0045 42.8431 6.82L45.8611 3.81327ZM0 3.95164L45.5258 3.95164V3.00672L0 3.00672L0 3.95164Z" fill="black"/>
<path d="M45.8611 3.81327L46.5669 4.52169L46.5669 4.52166L45.8611 3.81327ZM45.8611 3.1451L46.5669 2.4367L46.5669 2.43668L45.8611 3.1451ZM42.8431 0.138381L42.1373 0.846783L42.1373 0.846807L42.8431 0.138381ZM42.1725 0.138381L41.4668 -0.570113L41.4667 -0.570019L42.1725 0.138381ZM42.1725 0.806543L41.4667 1.51494L41.4667 1.51497L42.1725 0.806543ZM44.8551 3.47918L45.5609 4.18761L46.272 3.47918L45.5609 2.77076L44.8551 3.47918ZM42.1725 6.15185L42.8783 6.86027L42.8783 6.86027L42.1725 6.15185ZM42.1725 6.82L41.4666 7.52834L41.4668 7.52852L42.1725 6.82ZM42.8431 6.82L42.1373 6.11158L42.1373 6.11158L42.8431 6.82ZM0 3.95164H-1L-1 4.95164H0L0 3.95164ZM45.5258 3.95164V4.95164H46.5258V3.95164L45.5258 3.95164ZM45.5258 3.00672L46.5258 3.00672V2.00672L45.5258 2.00672V3.00672ZM0 3.00672L0 2.00672H-1L-1 3.00672H0ZM46.5669 4.52166C47.1444 3.94634 47.1444 3.01203 46.5669 2.4367L45.1553 3.8535C44.9482 3.64719 44.9482 3.31118 45.1553 3.10487L46.5669 4.52166ZM46.5669 2.43668L43.5489 -0.570046L42.1373 0.846807L45.1553 3.85353L46.5669 2.43668ZM43.5489 -0.570022C42.9735 -1.14338 42.0422 -1.14325 41.4668 -0.570113L42.8782 0.846874C42.6733 1.05099 42.3424 1.05112 42.1373 0.846783L43.5489 -0.570022ZM41.4667 -0.570019C40.8892 0.00530951 40.8892 0.939614 41.4667 1.51494L42.8783 0.0981457C43.0854 0.304452 43.0854 0.64047 42.8783 0.84678L41.4667 -0.570019ZM41.4667 1.51497L44.1493 4.18761L45.5609 2.77076L42.8783 0.0981159L41.4667 1.51497ZM44.1493 2.77076L41.4667 5.44342L42.8783 6.86027L45.5609 4.18761L44.1493 2.77076ZM41.4667 5.44342C40.8892 6.01879 40.8893 6.95304 41.4666 7.52834L42.8784 6.11167C43.0853 6.31788 43.0854 6.6539 42.8783 6.86027L41.4667 5.44342ZM41.4668 7.52852C42.0422 8.10161 42.9735 8.10174 43.5489 7.52843L42.1373 6.11158C42.3424 5.90726 42.6733 5.90739 42.8782 6.11149L41.4668 7.52852ZM43.5489 7.52843L46.5669 4.52169L45.1553 3.10484L42.1373 6.11158L43.5489 7.52843ZM0 4.95164L45.5258 4.95164V2.95164L0 2.95164L0 4.95164ZM46.5258 3.95164V3.00672L44.5258 3.00672V3.95164L46.5258 3.95164ZM45.5258 2.00672L0 2.00672L0 4.00672L45.5258 4.00672V2.00672ZM-1 3.00672V3.95164H1L1 3.00672H-1Z" fill="black" mask="url(#path-1-inside-1_106_134)"/>
</svg>
