<?xml version="1.0" encoding="UTF-8"?>
<svg id="Laag_2" data-name="Laag 2" xmlns="http://www.w3.org/2000/svg" viewBox="0 0 18.31 22.87">
  <defs>
    <style>
      .cls-1 {
        fill: #1d1d1b;
        stroke-width: 0px;
      }
    </style>
  </defs>
  <g id="Laag_1-2" data-name="Laag 1">
    <g>
      <path class="cls-1" d="M2.99.91c.82-.58,1.78-.91,2.83-.91,1.54,0,2.93.74,3.82,1.87.89-1.13,2.26-1.87,3.82-1.87,2.66,0,4.82,2.14,4.85,4.78v6.84h-2.04v-6.84c-.05-1.51-1.27-2.74-2.81-2.74s-2.76,1.22-2.78,2.74v6.84h-2.06v-6.77c0-1.56-1.25-2.81-2.78-2.81s-2.83,1.25-2.83,2.81v6.77H.95V0h2.04v.91Z"/>
      <path class="cls-1" d="M10.41,16.6v6.27h-1.89v-3.12h-.59c-.42,1.8-2,3.12-3.89,3.12-2.2,0-4.03-1.8-4.03-4.05s1.83-3.98,4.03-3.98c1.87,0,3.46,1.32,3.89,3.04h.59v-1.28c0-1.39-1.12-2.51-2.49-2.51H.95v-1.87h5.08c2.4,0,4.38,1.96,4.38,4.38ZM6.18,18.82c0-1.12-.97-2.11-2.18-2.11-1.14,0-2.13.99-2.13,2.11,0,1.23.99,2.2,2.13,2.2,1.21,0,2.18-.97,2.18-2.2Z"/>
      <g>
        <path class="cls-1" d="M12.87,12.29l.07-.04,1.69,3.39,1.67-3.39.07.04v-.07h1.76v.04l.04.04-2.6,5.24,2.6,5.21-.04.04v.07h-1.76v-.07l-.07.02-1.67-3.39-1.69,3.39-.07-.02v.07h-1.76v-.07l-.04-.04,2.6-5.21-2.6-5.24.04-.04v-.04h1.76v.07Z"/>
        <polyline class="cls-1" points="18.17 12.31 18.22 12.22 16.33 12.22 16.31 12.22 16.3 12.24 16.36 12.3"/>
        <polyline class="cls-1" points="11.06 12.31 11.02 12.22 12.91 12.22 12.93 12.22 12.94 12.24 12.88 12.3"/>
        <polygon class="cls-1" points="11.06 22.76 11 22.87 11.11 22.87 11.11 22.8 11.06 22.76"/>
        <polygon class="cls-1" points="12.93 22.83 12.91 22.87 12.87 22.87 12.87 22.8 12.93 22.83"/>
        <polygon class="cls-1" points="18.17 22.76 18.23 22.87 18.13 22.87 18.13 22.8 18.17 22.76"/>
        <polygon class="cls-1" points="16.3 22.83 16.32 22.87 16.37 22.87 16.37 22.8 16.3 22.83"/>
      </g>
    </g>
  </g>
</svg>