<svg width="80" height="103" viewBox="0 0 80 103" fill="none" xmlns="http://www.w3.org/2000/svg">
<path d="M13.0276 4.07519C16.6123 1.47782 20.809 0 25.3992 0C32.1314 0 38.2079 3.31389 42.0986 8.37429C45.9893 3.31389 51.9783 0 58.798 0C70.4263 0 79.8689 9.58342 80.0001 21.406V52.0371H71.0821V21.406C70.8635 14.6438 65.5302 9.13559 58.798 9.13559C52.0657 9.13559 46.7324 14.599 46.645 21.406V52.0371H37.6396V21.7194C37.6396 14.7334 32.1751 9.13559 25.4866 9.13559C18.7981 9.13559 13.1151 14.7334 13.1151 21.7194V52.0371H4.10962V0H13.0276V4.07519Z" fill="white"/>
<path d="M45.4643 74.3388V102.417H37.2021V88.4452H34.6228C32.7868 96.506 25.8797 102.417 17.6174 102.417C7.99997 102.417 0 94.3565 0 84.2805C0 74.2044 7.99997 66.4571 17.6174 66.4571C25.7923 66.4571 32.7431 72.3684 34.6228 80.0709H37.2021V74.3388C37.2021 68.114 32.3059 63.0984 26.3168 63.0984H4.10927V54.7241H26.3168C36.8086 54.7241 45.4643 63.5015 45.4643 74.3388ZM26.9726 84.2805C26.9726 79.2648 22.7322 74.8314 17.4426 74.8314C12.459 74.8314 8.13112 79.2648 8.13112 84.2805C8.13112 89.7887 12.459 94.1326 17.4426 94.1326C22.7322 94.1326 26.9726 89.7887 26.9726 84.2805Z" fill="white"/>
<path d="M56.2182 55.0376L56.5242 54.8585L63.9122 70.0397L71.2127 54.8585L71.5187 55.0376V54.7241H79.2126V54.9033L79.3875 55.0824L68.0214 78.5483L79.3875 101.88L79.2126 102.059V102.373H71.5187V102.059L71.2127 102.149L63.9122 86.9674L56.5242 102.149L56.2182 102.059V102.373H48.5242V102.059L48.3494 101.88L59.7154 78.5483L48.3494 55.0824L48.5242 54.9033V54.7241H56.2182V55.0376Z" fill="white"/>
<path d="M79.3872 55.1265L79.6058 54.7241H71.3436H71.2561L71.2124 54.8135L71.4747 55.0818" fill="white"/>
<path d="M48.3057 55.1265L48.1309 54.7241H56.3931H56.4806L56.5243 54.8135L56.262 55.0818" fill="white"/>
<path d="M48.3058 101.925L48.0435 102.416H48.5243V102.103L48.3058 101.925Z" fill="white"/>
<path d="M56.4803 102.238L56.3929 102.418H56.218V102.104L56.4803 102.238Z" fill="white"/>
<path d="M79.3875 101.925L79.6498 102.416H79.2126V102.103L79.3875 101.925Z" fill="white"/>
<path d="M71.2124 102.238L71.2998 102.418H71.5184V102.104L71.2124 102.238Z" fill="white"/>
</svg>
