<svg width="174" height="3790" viewBox="0 0 174 3790" fill="none" xmlns="http://www.w3.org/2000/svg">
<line x1="88.5" y1="87" x2="88.4998" y2="3723" stroke="#212121" stroke-width="3"/>
<circle cx="87" cy="87" r="87" fill="black"/>
<path d="M88.328 107V74.04H79.112V71.224C82.5253 71.0533 84.9787 70.4133 86.472 69.304C88.008 68.152 88.968 66.0187 89.352 62.904H92.488V107H88.328Z" fill="white"/>
<circle cx="87" cy="1895" r="87" fill="black"/>
<path d="M72.048 1915C72.0907 1913.42 72.2827 1911.93 72.624 1910.52C72.9653 1909.11 73.3493 1907.92 73.776 1906.94C74.2027 1905.91 74.8853 1904.87 75.824 1903.8C76.7627 1902.69 77.5093 1901.86 78.064 1901.3C78.6187 1900.71 79.5573 1899.94 80.88 1899C82.2453 1898.06 83.184 1897.44 83.696 1897.14C84.2507 1896.8 85.2747 1896.18 86.768 1895.29C90.48 1893.07 92.8693 1891.43 93.936 1890.36C95.856 1888.44 96.816 1886.03 96.816 1883.13C96.816 1880.23 95.9627 1877.94 94.256 1876.28C92.5493 1874.62 90.2453 1873.78 87.344 1873.78C84.2293 1873.78 81.7973 1874.72 80.048 1876.6C78.256 1878.56 77.3387 1881.44 77.296 1885.24H73.072C73.072 1880.5 74.3733 1876.83 76.976 1874.23C79.6213 1871.59 83.1627 1870.26 87.6 1870.26C91.6533 1870.26 94.896 1871.48 97.328 1873.91C99.8027 1876.3 101.04 1879.33 101.04 1883C101.04 1884.96 100.763 1886.69 100.208 1888.18C99.696 1889.68 98.7573 1891.06 97.392 1892.34C96.0693 1893.58 94.9387 1894.52 94 1895.16C93.104 1895.8 91.632 1896.72 89.584 1897.91C89.3707 1898.04 89.2213 1898.15 89.136 1898.23C89.0507 1898.27 88.9227 1898.34 88.752 1898.42C88.5813 1898.51 88.432 1898.59 88.304 1898.68C86.64 1899.66 85.3387 1900.47 84.4 1901.11C83.4613 1901.75 82.352 1902.61 81.072 1903.67C79.8347 1904.74 78.8533 1905.89 78.128 1907.13C77.4453 1908.37 76.9973 1909.71 76.784 1911.16H100.464V1915H72.048Z" fill="white"/>
<circle cx="87" cy="3703" r="87" fill="black"/>
<path d="M87.088 3723.9C82.608 3723.9 78.896 3722.59 75.952 3719.99C73.0507 3717.39 71.5787 3713.87 71.536 3709.43H75.696C75.824 3712.89 76.8907 3715.55 78.896 3717.43C80.944 3719.31 83.6533 3720.25 87.024 3720.25C90.3093 3720.25 92.8693 3719.39 94.704 3717.69C96.5813 3715.98 97.52 3713.63 97.52 3710.65C97.52 3707.75 96.56 3705.49 94.64 3703.86C92.7627 3702.24 90.1173 3701.43 86.704 3701.43H83.632V3698.04H86.64C89.6267 3698.04 91.9307 3697.31 93.552 3695.86C95.216 3694.41 96.048 3692.43 96.048 3689.91C96.048 3687.31 95.1947 3685.28 93.488 3683.83C91.824 3682.34 89.648 3681.59 86.96 3681.59C83.888 3681.59 81.456 3682.57 79.664 3684.54C77.9147 3686.5 77.04 3689.02 77.04 3692.09H72.944C72.9867 3687.95 74.2667 3684.6 76.784 3682.04C79.3013 3679.48 82.736 3678.2 87.088 3678.2C90.8427 3678.2 93.9573 3679.27 96.432 3681.4C98.9067 3683.49 100.144 3686.33 100.144 3689.91C100.144 3694.52 97.9467 3697.7 93.552 3699.45V3699.64C99.0133 3701.39 101.744 3705.17 101.744 3710.97C101.744 3714.94 100.379 3718.09 97.648 3720.44C94.96 3722.74 91.44 3723.9 87.088 3723.9Z" fill="white"/>
</svg>
